{"title":"Thunderbirds Are Go 2015 S01E04 Crosscut 720p WEB-DL","uid":11824442,"size":258942470,"categoryP":"video","categoryS":"hd___tv_shows","magnet":"?xt=urn:btih:ac523623f8368eea976e0357b4847085cc9da707&amp;dn=Thunderbirds+Are+Go+2015+S01E04+Crosscut+720p+WEB-DL&amp;tr=udp%3A%2F%2Ftracker.openbittorrent.com%3A80&amp;tr=udp%3A%2F%2Fopen.demonii.com%3A1337&amp;tr=udp%3A%2F%2Ftracker.coppersurfer.tk%3A6969&amp;tr=udp%3A%2F%2Fexodus.desync.com%3A6969","seeders":4,"leechers":0,"uploader":"jmanwf","files":1,"time":1429426709,"description":"Thunderbird 5 picks up an unusual radiation spike from a remote corner of Africa,\nand Scott rushes in with Thunderbird 1 to check it out. Using special equipment,\nScott enters the mine and discovers the source to be a leak of unstable uranium.\nMoments later he is attacked by a mysterious woman who claims that the mine\nbelongs to her family. During their confrontation, the mine begins to crumble -\nand Scott and she must find a way out.\n\n\n\n\nFormat                                   : MPEG-4\nFormat profile                           : Base Media\nCodec ID                                 : isom\nFile size                                : 247 MiB\nDuration                                 : 22mn 16s\nOverall bit rate mode                    : Variable\nOverall bit rate                         : 1 550 Kbps\nEncoded date                             : UTC 2015-04-19 00:14:47\nTagged date                              : UTC 2015-04-19 00:14:47\n\nVideo\nID                                       : 1\nFormat                                   : AVC\nFormat/Info                              : Advanced Video Codec\nFormat profile                           : &lt;a class=&quot;__cf_email__&quot; href=&quot;/cdn-cgi/l/email-protection&quot; data-cfemail=&quot;f1b9989699b1bdc5dfc0&quot;&gt;[email&amp;#160;protected]&lt;/a&gt;&lt;script cf-hash='f9e31' type=&quot;text/javascript&quot;&gt;\n/* &lt;![CDATA[ */!function(){try{var t=&quot;currentScript&quot;in document?document.currentScript:function(){for(var t=document.getElementsByTagName(&quot;script&quot;),e=t.length;e--;)if(t[e].getAttribute(&quot;cf-hash&quot;))return t[e]}();if(t&amp;&amp;t.previousSibling){var e,r,n,i,c=t.previousSibling,a=c.getAttribute(&quot;data-cfemail&quot;);if(a){for(e=&quot;&quot;,r=parseInt(a.substr(0,2),16),n=2;a.length-n;n+=2)i=parseInt(a.substr(n,2),16)^r,e+=String.fromCharCode(i);e=document.createTextNode(e),c.parentNode.replaceChild(e,c)}}}catch(u){}}();/* ]]&gt; */&lt;/script&gt;\nFormat settings, CABAC                   : Yes\nFormat settings, ReFrames                : 5 frames\nCodec ID                                 : avc1\nCodec ID/Info                            : Advanced Video Coding\nDuration                                 : 22mn 16s\nBit rate                                 : 1 386 Kbps\nMaximum bit rate                         : 5 521 Kbps\nWidth                                    : 1 280 pixels\nHeight                                   : 720 pixels\nDisplay aspect ratio                     : 16:9\nFrame rate mode                          : Constant\nFrame rate                               : 25.000 fps\nColor space                              : YUV\nChroma subsampling                       : 4:2:0\nBit depth                                : 8 bits\nScan type                                : Progressive\nBits/(Pixel*Frame)                       : 0.060\nStream size                              : 221 MiB (89%)\nWriting library                          : x264 core 146 r2538 121396c\n\nEncoded date                             : UTC 2015-04-19 00:14:47\nTagged date                              : UTC 2015-04-19 00:14:50\nMatrix coefficients                      : BT.709\nColor range                              : Limited\n\nAudio\nID                                       : 2\nFormat                                   : AAC\nFormat/Info                              : Advanced Audio Codec\nFormat profile                           : LC\nCodec ID                                 : 40\nDuration                                 : 22mn 16s\nBit rate mode                            : Variable\nBit rate                                 : 160 Kbps\nMaximum bit rate                         : 179 Kbps\nChannel(s)                               : 2 channels\nChannel positions                        : Front: L R\nSampling rate                            : 48.0 KHz\nCompression mode                         : Lossy\nStream size                              : 25.5 MiB (10%)\nLanguage                                 : English\nEncoded date                             : UTC 2015-04-18 23:38:38\nTagged date                              : UTC 2015-04-19 00:14:50\n\n\n\n &lt;a href=&quot;\nhttps://itunes.apple.com/gb/tv-season/thunderbirds-are-go/id973447617&quot; rel=&quot;nofollow&quot; target=&quot;_NEW&quot;&gt;\nhttps://itunes.apple.com/gb/tv-season/thunderbirds-are-go/id973447617&lt;/a&gt;","torrent":{"xt":"urn:btih:ac523623f8368eea976e0357b4847085cc9da707","amp;dn":"Thunderbirds+Are+Go+2015+S01E04+Crosscut+720p+WEB-DL","amp;tr":["udp%3A%2F%2Ftracker.openbittorrent.com%3A80","udp%3A%2F%2Fopen.demonii.com%3A1337","udp%3A%2F%2Ftracker.coppersurfer.tk%3A6969","udp%3A%2F%2Fexodus.desync.com%3A6969"],"infoHash":"ac523623f8368eea976e0357b4847085cc9da707","infoHashBuffer":{"type":"Buffer","data":[172,82,54,35,248,54,142,234,151,110,3,87,180,132,112,133,204,157,167,7]},"announce":[],"urlList":[]}}